<svg width="120" height="120" viewBox="0 0 120 120" fill="none" xmlns="http://www.w3.org/2000/svg">
<g filter="url(#filter0_i)">
<rect width="120" height="120" rx="30" fill="#3CD7FF"/>
</g>
<g style="mix-blend-mode:soft-light">
<rect width="120" height="120" rx="30" fill="url(#paint0_linear)"/>
</g>
<path d="M20.1294 30.6168L59.2262 13.1622L98.3229 30.6168V56.7986C98.3229 81.0168 81.6417 103.664 59.2262 109.162C36.8107 103.664 20.1294 81.0168 20.1294 56.7986V30.6168Z" fill="white"/>
<g filter="url(#filter1_di)">
<path d="M27.0957 34.1331L59.2247 19.353L91.3538 34.1331V56.3032C91.3538 76.8105 77.6454 95.9876 59.2247 100.643C40.8041 95.9876 27.0957 76.8105 27.0957 56.3032V34.1331Z" fill="#FEC131"/>
</g>
<g style="mix-blend-mode:soft-light">
<path d="M27.0957 34.1331L59.2247 19.353L91.3538 34.1331V56.3032C91.3538 76.8105 77.6454 95.9876 59.2247 100.643C40.8041 95.9876 27.0957 76.8105 27.0957 56.3032V34.1331Z" fill="url(#paint1_linear)"/>
</g>
<g filter="url(#filter2_di)">
<path d="M37.4923 44.3236L34.8271 46.9887L57.4806 58.0934L65.0318 49.6538L37.4923 44.3236Z" fill="#EC2029"/>
<path d="M75.2484 82.0787L70.3624 54.9834L61.9229 62.5346L72.5833 84.7438L75.2484 82.0787Z" fill="#C20E16"/>
<path d="M74.3578 39.4391C76.5787 37.2182 80.1322 36.3298 81.909 38.1065C83.6858 39.8832 82.7973 43.4368 80.5764 45.6577L49.9276 74.5297L51.2823 81.1704L49.0392 83.4134L45.0637 74.9518L36.6021 70.9763L38.8451 68.7332L45.4858 70.0879C53.6846 61.4068 71.1169 42.68 74.3578 39.4391Z" fill="url(#paint2_linear)"/>
</g>
<defs>
<filter id="filter0_i" x="-1.65079" y="-2.47619" width="121.651" height="122.476" filterUnits="userSpaceOnUse" color-interpolation-filters="sRGB">
<feFlood flood-opacity="0" result="BackgroundImageFix"/>
<feBlend mode="normal" in="SourceGraphic" in2="BackgroundImageFix" result="shape"/>
<feColorMatrix in="SourceAlpha" type="matrix" values="0 0 0 0 0 0 0 0 0 0 0 0 0 0 0 0 0 0 127 0" result="hardAlpha"/>
<feOffset dx="-1.65079" dy="-2.47619"/>
<feGaussianBlur stdDeviation="2.26984"/>
<feComposite in2="hardAlpha" operator="arithmetic" k2="-1" k3="1"/>
<feColorMatrix type="matrix" values="0 0 0 0 0 0 0 0 0 0.715311 0 0 0 0 0.929167 0 0 0 0.73 0"/>
<feBlend mode="normal" in2="shape" result="effect1_innerShadow"/>
</filter>
<filter id="filter1_di" x="26.4677" y="18.0971" width="66.1408" height="83.7992" filterUnits="userSpaceOnUse" color-interpolation-filters="sRGB">
<feFlood flood-opacity="0" result="BackgroundImageFix"/>
<feColorMatrix in="SourceAlpha" type="matrix" values="0 0 0 0 0 0 0 0 0 0 0 0 0 0 0 0 0 0 127 0" result="hardAlpha"/>
<feOffset dx="0.627977" dy="0.6265"/>
<feGaussianBlur stdDeviation="0.31325"/>
<feColorMatrix type="matrix" values="0 0 0 0 0 0 0 0 0 0 0 0 0 0 0 0 0 0 0.17 0"/>
<feBlend mode="normal" in2="BackgroundImageFix" result="effect1_dropShadow"/>
<feBlend mode="normal" in="SourceGraphic" in2="effect1_dropShadow" result="shape"/>
<feColorMatrix in="SourceAlpha" type="matrix" values="0 0 0 0 0 0 0 0 0 0 0 0 0 0 0 0 0 0 127 0" result="hardAlpha"/>
<feOffset dx="-0.627977" dy="-1.25595"/>
<feGaussianBlur stdDeviation="3.30984"/>
<feComposite in2="hardAlpha" operator="arithmetic" k2="-1" k3="1"/>
<feColorMatrix type="matrix" values="0 0 0 0 0.858333 0 0 0 0 0.589638 0 0 0 0 0 0 0 0 1 0"/>
<feBlend mode="normal" in2="shape" result="effect2_innerShadow"/>
</filter>
<filter id="filter2_di" x="34.0018" y="35.5106" width="52.9792" height="52.5348" filterUnits="userSpaceOnUse" color-interpolation-filters="sRGB">
<feFlood flood-opacity="0" result="BackgroundImageFix"/>
<feColorMatrix in="SourceAlpha" type="matrix" values="0 0 0 0 0 0 0 0 0 0 0 0 0 0 0 0 0 0 127 0" result="hardAlpha"/>
<feOffset dx="1.65079" dy="0.825397"/>
<feGaussianBlur stdDeviation="1.2381"/>
<feColorMatrix type="matrix" values="0 0 0 0 0.316667 0 0 0 0 0 0 0 0 0 0 0 0 0 0.3 0"/>
<feBlend mode="normal" in2="BackgroundImageFix" result="effect1_dropShadow"/>
<feBlend mode="normal" in="SourceGraphic" in2="effect1_dropShadow" result="shape"/>
<feColorMatrix in="SourceAlpha" type="matrix" values="0 0 0 0 0 0 0 0 0 0 0 0 0 0 0 0 0 0 127 0" result="hardAlpha"/>
<feOffset dx="-0.825397" dy="-0.412698"/>
<feGaussianBlur stdDeviation="0.412698"/>
<feComposite in2="hardAlpha" operator="arithmetic" k2="-1" k3="1"/>
<feColorMatrix type="matrix" values="0 0 0 0 0.795833 0 0 0 0 0 0 0 0 0 0 0 0 0 0.39 0"/>
<feBlend mode="normal" in2="shape" result="effect2_innerShadow"/>
</filter>
<linearGradient id="paint0_linear" x1="7.74194" y1="116.903" x2="112.258" y2="9.67742" gradientUnits="userSpaceOnUse">
<stop/>
<stop offset="1" stop-color="white"/>
</linearGradient>
<linearGradient id="paint1_linear" x1="91.3538" y1="30.1917" x2="33.436" y2="105.597" gradientUnits="userSpaceOnUse">
<stop stop-color="white"/>
<stop offset="1"/>
</linearGradient>
<linearGradient id="paint2_linear" x1="26.8708" y1="83.67" x2="108.152" y2="29.4822" gradientUnits="userSpaceOnUse">
<stop stop-color="#EC2029"/>
<stop offset="1" stop-color="#FF6A71"/>
</linearGradient>
</defs>
</svg>
