<svg width="60" height="80" viewBox="0 0 60 80" fill="none" xmlns="http://www.w3.org/2000/svg">
<path fill-rule="evenodd" clip-rule="evenodd" d="M26.8928 80C12.0647 80 0 68.0126 0 53.2797V26.7203C0 11.9874 12.0647 0 26.8928 0H33.1072C47.9353 0 60 11.9874 60 26.7203V53.274C60 53.33 59.9998 53.386 59.9995 53.442C59.9991 52.8893 59.9985 52.3366 59.9976 51.7837C59.9976 50.5874 59.4826 50.0778 58.2756 50.067C58.0831 50.0635 57.8928 50.0646 57.6855 50.0658H57.6854C57.575 50.0664 57.4598 50.067 57.3368 50.067V49.2194C57.3368 47.7042 57.3333 46.1885 57.3298 44.6726V44.6716C57.321 40.8798 57.3123 37.086 57.3583 33.2922C57.3905 30.7977 55.47 28.963 53.0506 29.0006C49.6001 29.0521 46.1496 29.043 42.6991 29.034C41.1177 29.0298 39.5362 29.0257 37.9548 29.0274C37.5525 29.0274 37.1448 29.0488 36.7478 29.1293C35.1706 29.4458 33.6256 30.9586 33.6471 33.2922C33.6816 37.0817 33.675 40.874 33.6684 44.667C33.6658 46.1844 33.6632 47.7019 33.6632 49.2194V50.0724C33.485 50.0724 33.3413 50.0708 33.2131 50.0693H33.213C33.1096 50.0681 33.0163 50.067 32.9229 50.067C31.4315 50.0724 31.0024 50.4962 31.0024 51.9661C31.0024 53.1671 31.0018 54.3687 31.0012 55.5704L31.0012 55.5826C31 57.9948 30.9988 60.4078 31.0024 62.8185C31.0024 64.798 32.0807 65.8763 34.0602 65.8816C35.0478 65.8835 36.0361 65.8841 37.0248 65.884C36.9324 66.2283 36.8433 66.5713 36.7547 66.9126C36.4966 67.9062 36.2423 68.8851 35.9231 69.839C35.4909 71.1357 36.2446 72.0054 37.5466 71.9948C42.3968 71.952 47.2442 71.9581 52.0929 71.9642C52.1646 71.9643 52.2362 71.9643 52.3079 71.9644C47.4236 76.917 40.6201 79.9943 33.1072 79.9943H26.8928V80Z" fill="url(#paint0_linear)"/>
<path d="M2.66285 50.3199C2.66285 49.9745 2.66285 49.7209 2.66285 49.4672C2.66285 44.1571 2.69523 38.847 2.64667 33.5369C2.62508 31.2002 4.16847 29.6946 5.74424 29.3762C6.13818 29.2952 6.54831 29.2737 6.95304 29.2737C11.9825 29.2683 17.0175 29.3222 22.047 29.2467C24.4646 29.2089 26.3857 31.0437 26.3587 33.5369C26.294 38.847 26.3371 44.1571 26.3371 49.4672C26.3371 49.7209 26.3371 49.9745 26.3371 50.3145C26.6879 50.3145 26.9793 50.3091 27.2761 50.3145C28.4795 50.3253 28.9976 50.8325 28.9976 52.0359C29.003 55.3548 28.9976 58.6736 28.9976 61.9924C28.9976 62.3971 29.003 62.8073 28.9976 63.212C28.976 65.0198 27.8751 66.1261 26.0565 66.1315C21.2375 66.1423 16.4238 66.1369 11.6048 66.1369C8.75546 66.1369 5.91153 66.1423 3.06219 66.1369C1.08169 66.1315 0.00779489 65.0576 0.00239843 63.0771C-0.00299804 59.4561 0.00239843 55.8404 0.00239843 52.2194C0.00239843 50.7516 0.434115 50.3253 1.92354 50.3199C2.134 50.3199 2.34446 50.3199 2.66285 50.3199Z" fill="white"/>
<path d="M25.4985 67.5873C25.936 69.2108 26.4103 70.8289 26.8004 72.4629C26.9796 73.2061 26.3366 73.9072 25.567 73.9599C25.3983 73.9704 25.2349 73.9652 25.0663 73.9652C18.5461 73.9652 12.0206 73.9335 5.50043 73.9915C4.20377 74.0021 3.45529 73.1376 3.88751 71.8462C4.34609 70.4652 4.67289 69.0368 5.06821 67.582C5.85358 67.5873 24.6709 67.5873 25.4985 67.5873Z" fill="white"/>
<path d="M2.71519 51.8298C2.71519 51.4924 2.71519 51.2447 2.71519 50.997C2.71519 45.8103 2.74681 40.6237 2.69937 35.4371C2.67829 33.1547 4.18579 31.6841 5.72491 31.3732C6.10969 31.2941 6.51028 31.273 6.9056 31.273C11.8181 31.2677 16.736 31.3204 21.6485 31.2467C24.0099 31.2098 25.8864 33.0019 25.86 35.4371C25.7967 40.6237 25.8389 45.8103 25.8389 50.997C25.8389 51.2447 25.8389 51.4924 25.8389 51.8245C26.1815 51.8245 26.4662 51.8192 26.7561 51.8245C27.9315 51.835 28.4375 52.3305 28.4375 53.5059C28.4428 56.7476 28.4375 59.9892 28.4375 63.2309C28.4375 63.6262 28.4428 64.0268 28.4375 64.4221C28.4164 66.1879 27.3411 67.2684 25.5648 67.2737C20.8578 67.2842 16.1561 67.279 11.4492 67.279C8.66611 67.279 5.88831 67.2842 3.10524 67.279C1.17079 67.2737 0.121871 66.2248 0.1166 64.2903C0.111329 60.7535 0.1166 57.222 0.1166 53.6852C0.1166 52.2515 0.538277 51.835 1.99306 51.8298C2.19863 51.8298 2.4042 51.8298 2.71519 51.8298Z" fill="#EC2227"/>
<path d="M24.4985 68.5873C24.936 70.2108 25.4103 71.8289 25.8004 73.4629C25.9796 74.2061 25.3366 74.9072 24.567 74.9599C24.3983 74.9704 24.2349 74.9652 24.0663 74.9652C17.5461 74.9652 11.0206 74.9335 4.50043 74.9915C3.20377 75.0021 2.45529 74.1376 2.88751 72.8462C3.34609 71.4652 3.67289 70.0368 4.06821 68.582C4.85358 68.5873 23.6709 68.5873 24.4985 68.5873Z" fill="#EC2227"/>
<path d="M33.7535 51.7049C33.7535 51.3623 33.7535 51.1146 33.7535 50.8668C33.7535 45.6486 33.7851 40.4303 33.7376 35.2173C33.7166 32.9245 35.2346 31.438 36.7843 31.1271C37.1743 31.048 37.5749 31.0269 37.9702 31.0269C42.9144 31.0216 47.8586 31.0743 52.8027 31.0006C55.1799 30.9637 57.0669 32.7663 57.0353 35.2173C56.9721 40.4356 57.0142 45.6538 57.0142 50.8668C57.0142 51.1146 57.0142 51.3623 57.0142 51.6996C57.3621 51.6996 57.6467 51.6944 57.9366 51.6996C59.1226 51.7102 59.6286 52.2109 59.6286 53.3863C59.6339 56.6491 59.6286 59.9065 59.6286 63.1693C59.6286 63.5698 59.6339 63.9704 59.6286 64.3658C59.6075 66.1421 58.527 67.2279 56.7349 67.2332C52.0015 67.2437 47.2682 67.2384 42.5349 67.2384C39.736 67.2384 36.9371 67.2437 34.1435 67.2384C32.1985 67.2332 31.1391 66.1737 31.1391 64.2287C31.1338 60.6761 31.1391 57.1182 31.1391 53.5656C31.1391 52.1213 31.5607 51.7049 33.0261 51.6996C33.2316 51.6996 33.4372 51.7049 33.7535 51.7049Z" fill="#EC2227"/>
<path d="M55.6658 68.5537C56.1086 70.1877 56.583 71.8112 56.973 73.4557C57.1522 74.2042 56.5092 74.9105 55.7343 74.9632C55.5657 74.9737 55.397 74.9685 55.2283 74.9685C48.666 74.9685 42.1089 74.9368 35.5466 74.9948C34.2446 75.0054 33.4909 74.1357 33.9231 72.839C34.3869 71.4527 34.7137 70.0138 35.1143 68.5537C35.905 68.5537 54.833 68.5537 55.6658 68.5537Z" fill="#EC2227"/>
<path d="M22.7613 55.0618V59.5212C22.7613 60.11 22.2576 60.583 21.642 60.583H6.358C5.73728 60.583 5.23867 60.1052 5.23867 59.5212V55.0618C5.23867 54.473 4.73497 54 4.11933 54C3.49861 54 3 54.4778 3 55.0618V60.583V62.9382C3 63.527 3.5037 64 4.11933 64H23.8807C24.5014 64 25 63.5222 25 62.9382V62.75V60.583V55.0618C25 54.473 24.4963 54 23.8807 54C23.2599 53.9952 22.7613 54.473 22.7613 55.0618Z" fill="white"/>
<path d="M53.7606 54.2777V59.6302C53.7606 60.3324 53.2601 60.9079 52.6383 60.9079H37.3667C36.75 60.9079 36.2445 60.3381 36.2445 59.6302V54.2777C36.2445 53.5755 35.744 53 35.1222 53C34.5055 53 34 53.5698 34 54.2777V60.9022V63.7223C34 64.4245 34.5005 65 35.1222 65H54.8778C55.4945 65 56 64.4302 56 63.7223V63.4978V60.9022V54.2777C56 53.5755 55.4995 53 54.8778 53C54.261 53.0058 53.7606 53.5755 53.7606 54.2777Z" fill="white"/>
<defs>
<linearGradient id="paint0_linear" x1="34.4159" y1="34.9999" x2="34.6173" y2="-8.04122" gradientUnits="userSpaceOnUse">
<stop stop-color="#FEDC00"/>
<stop offset="0.3" stop-color="#FEDC00"/>
<stop offset="0.4447" stop-color="#FED406"/>
<stop offset="0.7075" stop-color="#FCBD15"/>
<stop offset="0.9264" stop-color="#FAA71B"/>
<stop offset="1" stop-color="#FAA71B"/>
</linearGradient>
</defs>
</svg>
